<svg version="1.0"
        xmlns="http://www.w3.org/2000/svg" width="100%" height="100%" viewBox="0 0 858.000000 892.000000" preserveAspectRatio="xMidYMid meet">

        <g transform="translate(0.000000,892.000000) scale(0.100000,-0.100000)" fill="#000000" stroke="none">
                <path stroke="#000" d="M4470 5470 l0 -3370 55 0 55 0 0 3370 0 3370 -55 0 -55 0 0 -3370z" class="svg-elem-1"></path>
                <path stroke="#000" d="M1226 1913 c-30 -11 -71 -37 -108 -71 l-58 -54 0 66 0 66 -65 0 -65
0 0 -675 0 -675 65 0 64 0 3 503 c3 486 4 503 24 548 30 64 79 116 138 146 68
35 190 43 265 18 66 -22 147 -95 177 -160 l24 -50 0 -502 0 -503 70 0 69 0 3
522 3 523 23 44 c53 98 118 133 262 139 93 4 112 2 158 -18 60 -26 124 -91
155 -158 21 -46 22 -59 25 -549 l3 -503 64 0 65 0 0 503 c0 533 -2 552 -50
651 -30 63 -126 149 -197 178 -51 20 -75 23 -198 23 -139 0 -141 0 -207 -33
-63 -31 -168 -127 -168 -154 0 -6 -27 19 -61 55 -43 47 -79 76 -127 99 -63 31
-73 33 -187 35 -91 2 -132 -1 -169 -14z" class="svg-elem-2"></path>
                <path stroke="#000" d="M3430 1914 c-225 -58 -428 -258 -486 -479 -44 -170 -25 -357 51 -511
153 -307 498 -449 837 -344 81 25 174 81 248 147 32 29 61 53 64 53 3 0 6 -47
6 -105 l0 -105 65 0 65 0 0 675 0 675 -65 0 -65 0 0 -116 0 -116 -72 66 c-80
73 -168 123 -272 155 -83 26 -287 29 -376 5z m372 -142 c124 -45 258 -166 315
-284 77 -159 77 -338 0 -496 -35 -73 -136 -186 -204 -230 -133 -85 -314 -108
-465 -59 -99 32 -158 70 -240 155 -134 139 -185 319 -144 510 39 183 190 349
370 409 62 20 85 23 191 19 88 -2 135 -9 177 -24z" class="svg-elem-3"></path>
                <path stroke="#000" d="M4933 1910 c-92 -27 -195 -87 -273 -158 l-70 -64 0 117 0 116 -67 -3
-68 -3 -3 -672 -2 -673 70 0 70 0 0 105 c0 58 3 105 6 105 3 0 32 -24 64 -53
242 -219 596 -243 868 -58 295 200 382 642 186 949 -52 80 -159 183 -240 228
-112 62 -204 84 -353 83 -91 0 -143 -6 -188 -19z m374 -135 c272 -92 429 -371
369 -656 -20 -95 -66 -178 -142 -258 -120 -127 -244 -183 -409 -183 -166 0
-292 57 -410 184 -102 110 -149 230 -149 378 0 161 50 278 168 395 125 124
218 163 394 164 86 1 116 -3 179 -24z" class="svg-elem-4"></path>
                <path stroke="#000" d="M6390 1914 c-56 -20 -122 -65 -149 -101 l-20 -28 -1 68 0 67 -65 0
-65 0 0 -675 0 -675 65 0 64 0 4 503 c2 400 6 510 17 541 20 53 88 127 146
155 64 32 178 40 256 17 71 -20 152 -91 184 -161 l24 -50 0 -502 0 -503 64 0
65 0 3 503 c4 572 4 574 81 651 60 60 129 80 255 74 73 -3 107 -9 138 -25 51
-27 109 -91 137 -151 22 -46 22 -57 25 -549 l3 -503 64 0 65 0 0 503 c0 482
-1 505 -21 573 -38 127 -136 227 -261 265 -55 17 -88 20 -185 17 -108 -3 -124
-6 -183 -34 -65 -31 -128 -85 -158 -136 -16 -28 -32 -37 -32 -19 0 26 -107
123 -168 153 -63 30 -75 33 -187 35 -91 2 -131 -1 -165 -13z" class="svg-elem-5"></path>
                <path stroke="#04544E" fill="#04544E" d="M4440 240 l0 -60 693 2 692 3 0 55 0 55 -692 3 -693 2 0 -60z" class="svg-elem-6"></path>
        </g>
</svg>
